<svg width="11" height="8" viewBox="0 0 11 8" fill="none" xmlns="http://www.w3.org/2000/svg">
<path d="M4.66667 8C4.66667 8 4 8 4 7.33333C4 6.66667 4.66667 4.66667 7.33333 4.66667C10 4.66667 10.6667 6.66667 10.6667 7.33333C10.6667 8 10 8 10 8H4.66667ZM7.33333 4C7.86377 4 8.37247 3.78929 8.74755 3.41421C9.12262 3.03914 9.33333 2.53043 9.33333 2C9.33333 1.46957 9.12262 0.960859 8.74755 0.585787C8.37247 0.210714 7.86377 0 7.33333 0C6.8029 0 6.29419 0.210714 5.91912 0.585787C5.54405 0.960859 5.33333 1.46957 5.33333 2C5.33333 2.53043 5.54405 3.03914 5.91912 3.41421C6.29419 3.78929 6.8029 4 7.33333 4V4Z" fill="#878787"/>
<path fill-rule="evenodd" clip-rule="evenodd" d="M3.47733 8.00061C3.3785 7.79249 3.32922 7.5643 3.33333 7.33394C3.33333 6.43061 3.78667 5.50061 4.624 4.85394C4.20606 4.72517 3.77063 4.66219 3.33333 4.66728C0.666667 4.66728 0 6.66728 0 7.33394C0 8.00061 0.666667 8.00061 0.666667 8.00061H3.47733Z" fill="#878787"/>
<path d="M3.00004 4.00033C3.44207 4.00033 3.86599 3.82473 4.17855 3.51217C4.49111 3.19961 4.66671 2.77569 4.66671 2.33366C4.66671 1.89163 4.49111 1.46771 4.17855 1.15515C3.86599 0.842587 3.44207 0.666992 3.00004 0.666992C2.55801 0.666992 2.13409 0.842587 1.82153 1.15515C1.50897 1.46771 1.33337 1.89163 1.33337 2.33366C1.33337 2.77569 1.50897 3.19961 1.82153 3.51217C2.13409 3.82473 2.55801 4.00033 3.00004 4.00033V4.00033Z" fill="#878787"/>
</svg>
