<svg width="58" height="57" viewBox="0 0 58 57" fill="none" xmlns="http://www.w3.org/2000/svg">
<path d="M40.4535 0.0285248C40.3325 -0.106849 35.9733 0.0819621 32.1799 4.20375C28.3865 8.32198 28.9701 13.0458 29.0555 13.167C29.1409 13.2881 34.4645 13.4769 37.8629 8.68536C41.2613 3.89382 40.5745 0.167462 40.4535 0.0285248ZM52.2465 41.8271C52.0757 41.4851 43.9729 37.431 44.7273 29.6363C45.4817 21.838 50.6878 19.7006 50.7697 19.469C50.8515 19.2374 48.6452 16.6546 46.3073 15.3472C44.5907 14.4254 42.6909 13.8973 40.7453 13.8011C40.361 13.7904 39.0265 13.4626 36.2829 14.2143C34.4751 14.7095 30.4006 16.3126 29.2797 16.3768C28.1552 16.4409 24.8102 14.5171 21.2125 14.0077C18.9101 13.5624 16.469 14.4744 14.7217 15.1762C12.978 15.8744 9.66147 17.8623 7.3413 23.1455C5.02114 28.4251 6.2346 36.7898 7.10288 39.3904C7.97117 41.9874 9.32697 46.2446 11.6329 49.3511C13.6826 52.8566 16.4013 55.2897 17.5365 56.1162C18.6717 56.9427 21.8744 57.4914 24.0949 56.3549C25.8813 55.2577 29.1053 54.6271 30.3793 54.6734C31.6497 54.7197 34.1549 55.222 36.7206 56.5936C38.7525 57.2954 40.6741 57.0033 42.5993 56.2195C44.5245 55.4322 47.3108 52.4469 50.5633 46.3942C51.7981 43.5799 52.3604 42.0587 52.2465 41.8271Z" fill="#E7E7E7"/>
</svg>
