<svg width="20" height="20" viewBox="0 0 20 20" fill="none" xmlns="http://www.w3.org/2000/svg">
<path d="M10.7832 9.99982L14.8332 5.94982C14.9242 5.84354 14.9718 5.70683 14.9664 5.56701C14.961 5.42719 14.903 5.29456 14.8041 5.19562C14.7051 5.09668 14.5725 5.03871 14.4327 5.03331C14.2929 5.02791 14.1562 5.07547 14.0499 5.16649L9.99988 9.21649L5.94988 5.16093C5.8436 5.06992 5.70689 5.02236 5.56707 5.02776C5.42725 5.03316 5.29462 5.09112 5.19568 5.19006C5.09673 5.289 5.03877 5.42164 5.03337 5.56146C5.02797 5.70128 5.07553 5.83799 5.16654 5.94426L9.21654 9.99982L5.16099 14.0498C5.10283 14.0996 5.0556 14.1609 5.02225 14.2298C4.98891 14.2988 4.97017 14.3738 4.96721 14.4503C4.96426 14.5269 4.97715 14.6032 5.00508 14.6744C5.03301 14.7457 5.07537 14.8105 5.12952 14.8646C5.18366 14.9188 5.24841 14.9611 5.3197 14.9891C5.39099 15.017 5.46728 15.0299 5.5438 15.0269C5.62031 15.024 5.69538 15.0052 5.7643 14.9719C5.83323 14.9385 5.89452 14.8913 5.94432 14.8332L9.99988 10.7832L14.0499 14.8332C14.1562 14.9242 14.2929 14.9717 14.4327 14.9663C14.5725 14.9609 14.7051 14.903 14.8041 14.804C14.903 14.7051 14.961 14.5724 14.9664 14.4326C14.9718 14.2928 14.9242 14.1561 14.8332 14.0498L10.7832 9.99982Z" fill="black"/>
</svg>
