<svg width="30" height="30" viewBox="0 0 30 30" fill="none" xmlns="http://www.w3.org/2000/svg">
<path d="M14.8828 18.2811C15.7531 18.2811 16.5877 17.9354 17.203 17.32C17.8184 16.7047 18.1641 15.8701 18.1641 14.9998C18.1641 14.9037 18.1597 14.8085 18.1515 14.7145L14.5975 18.2685C14.6915 18.2767 14.7864 18.2811 14.8828 18.2811ZM25.7438 4.85023L24.4922 3.59984C24.4482 3.55592 24.3886 3.53125 24.3265 3.53125C24.2644 3.53125 24.2048 3.55592 24.1608 3.59984L20.9581 6.80346C19.1913 5.90053 17.2053 5.44906 15 5.44906C9.36914 5.44906 5.16797 8.38168 2.39649 14.2469C2.28509 14.4828 2.22731 14.7404 2.22731 15.0013C2.22731 15.2622 2.28509 15.5198 2.39649 15.7557C3.50391 18.0883 4.8374 19.9579 6.39697 21.3646L3.29766 24.4627C3.25374 24.5067 3.22906 24.5663 3.22906 24.6284C3.22906 24.6905 3.25374 24.7501 3.29766 24.7941L4.54834 26.0448C4.59229 26.0887 4.65188 26.1134 4.71401 26.1134C4.77615 26.1134 4.83574 26.0887 4.87969 26.0448L25.7438 5.18187C25.7655 5.16011 25.7828 5.13426 25.7946 5.10581C25.8064 5.07735 25.8125 5.04685 25.8125 5.01605C25.8125 4.98525 25.8064 4.95475 25.7946 4.9263C25.7828 4.89785 25.7655 4.872 25.7438 4.85023ZM9.72656 14.9998C9.72648 14.1092 9.95708 13.2338 10.3959 12.4588C10.8347 11.6838 11.4668 11.0357 12.2305 10.5776C12.9943 10.1195 13.8637 9.86698 14.754 9.84473C15.6443 9.82249 16.5253 10.0312 17.3109 10.4506L15.8865 11.875C15.3121 11.6911 14.6981 11.6689 14.1118 11.811C13.5256 11.9531 12.9899 12.2539 12.5634 12.6804C12.1368 13.1069 11.836 13.6427 11.694 14.2289C11.5519 14.8151 11.5741 15.4291 11.758 16.0036L10.3336 17.428C9.93387 16.6811 9.72532 15.8469 9.72656 14.9998V14.9998Z" fill="#999999"/>
<path d="M27.6035 14.2446C26.5723 12.0728 25.3448 10.3018 23.9212 8.93164L19.6983 13.1548C20.0543 14.0853 20.1332 15.099 19.9255 16.0734C19.7178 17.0477 19.2324 17.9411 18.5279 18.6456C17.8235 19.3501 16.9301 19.8355 15.9557 20.0432C14.9813 20.2509 13.9676 20.172 13.0371 19.816L9.45527 23.3979C11.117 24.1668 12.9652 24.5513 15 24.5513C20.6309 24.5513 24.832 21.6187 27.6035 15.7534C27.7149 15.5175 27.7727 15.2599 27.7727 14.999C27.7727 14.7381 27.7149 14.4805 27.6035 14.2446V14.2446Z" fill="#999999"/>
</svg>
