<svg width="42" height="42" viewBox="0 0 42 42" fill="none" xmlns="http://www.w3.org/2000/svg">
<path d="M17.9332 26.7542C17.9332 24.9272 17.4292 23.3732 16.4212 22.0922C14.8882 20.1602 11.9272 19.9292 10.2052 20.3072C9.49123 16.2542 12.9352 11.0882 17.3872 8.86222L13.9642 4.07422C7.24423 7.26622 0.650229 14.6162 1.78423 23.8772C2.49823 29.7362 5.87923 33.6002 10.6672 33.6002C12.7672 33.6002 14.5102 32.9912 15.8752 31.7522C17.2612 30.5132 17.9332 28.8542 17.9332 26.7542V26.7542ZM37.7362 26.7542C37.7362 24.9272 37.2322 23.3732 36.2242 22.0922C34.6912 20.1602 31.7302 19.9292 30.0082 20.3072C29.2942 16.2542 32.7382 11.0882 37.1902 8.86222L33.7672 4.07422C27.0472 7.26622 20.4532 14.6162 21.5872 23.8772C22.3012 29.7362 25.6822 33.6002 30.4702 33.6002C32.5702 33.6002 34.3132 32.9912 35.6782 31.7522C37.0642 30.5132 37.7362 28.8542 37.7362 26.7542V26.7542Z" fill="black"/>
</svg>
