<svg width="45" height="45" viewBox="0 0 45 45" fill="none" xmlns="http://www.w3.org/2000/svg">
<path d="M12.6562 18.501C12.6562 19.0604 12.8785 19.5969 13.2741 19.9925C13.6697 20.3881 14.2062 20.6104 14.7656 20.6104C15.3251 20.6104 15.8616 20.3881 16.2572 19.9925C16.6528 19.5969 16.875 19.0604 16.875 18.501C16.875 17.9415 16.6528 17.405 16.2572 17.0094C15.8616 16.6138 15.3251 16.3916 14.7656 16.3916C14.2062 16.3916 13.6697 16.6138 13.2741 17.0094C12.8785 17.405 12.6562 17.9415 12.6562 18.501ZM28.125 18.501C28.125 19.0604 28.3472 19.5969 28.7428 19.9925C29.1384 20.3881 29.6749 20.6104 30.2344 20.6104C30.7938 20.6104 31.3303 20.3881 31.7259 19.9925C32.1215 19.5969 32.3438 19.0604 32.3438 18.501C32.3438 17.9415 32.1215 17.405 31.7259 17.0094C31.3303 16.6138 30.7938 16.3916 30.2344 16.3916C29.6749 16.3916 29.1384 16.6138 28.7428 17.0094C28.3472 17.405 28.125 17.9415 28.125 18.501ZM22.5 2.8125C11.6279 2.8125 2.8125 11.6279 2.8125 22.5C2.8125 33.3721 11.6279 42.1875 22.5 42.1875C33.3721 42.1875 42.1875 33.3721 42.1875 22.5C42.1875 11.6279 33.3721 2.8125 22.5 2.8125ZM34.0576 34.0576C32.5547 35.5605 30.8057 36.7383 28.8589 37.5645C26.8506 38.417 24.7104 38.8477 22.5 38.8477C20.2896 38.8477 18.1494 38.417 16.1367 37.5645C14.1929 36.7435 12.4272 35.5525 10.938 34.0576C9.43506 32.5547 8.25732 30.8057 7.43115 28.8589C6.58301 26.8506 6.15234 24.7104 6.15234 22.5C6.15234 20.2896 6.58301 18.1494 7.43555 16.1367C8.25648 14.1929 9.44753 12.4272 10.9424 10.938C12.4453 9.43506 14.1943 8.25732 16.1411 7.43115C18.1494 6.58301 20.2896 6.15234 22.5 6.15234C24.7104 6.15234 26.8506 6.58301 28.8633 7.43555C30.8071 8.25648 32.5728 9.44753 34.062 10.9424C35.5649 12.4453 36.7427 14.1943 37.5688 16.1411C38.417 18.1494 38.8477 20.2896 38.8477 22.5C38.8477 24.7104 38.417 26.8506 37.5645 28.8633C36.7445 30.8064 35.5533 32.5708 34.0576 34.0576ZM29.1797 23.4229H27.0659C26.8813 23.4229 26.7231 23.5635 26.71 23.748C26.543 25.9233 24.7192 27.6416 22.5 27.6416C20.2808 27.6416 18.4526 25.9233 18.29 23.748C18.2769 23.5635 18.1187 23.4229 17.9341 23.4229H15.8203C15.7726 23.4228 15.7254 23.4324 15.6816 23.4512C15.6377 23.4699 15.5982 23.4974 15.5653 23.532C15.5324 23.5665 15.5069 23.6073 15.4903 23.6521C15.4737 23.6968 15.4664 23.7444 15.4688 23.792C15.6621 27.4966 18.7427 30.4541 22.5 30.4541C26.2573 30.4541 29.3379 27.4966 29.5312 23.792C29.5336 23.7444 29.5263 23.6968 29.5097 23.6521C29.4931 23.6073 29.4676 23.5665 29.4347 23.532C29.4018 23.4974 29.3623 23.4699 29.3184 23.4512C29.2746 23.4324 29.2274 23.4228 29.1797 23.4229Z" fill="#FCBC05"/>
</svg>
