<svg width="32" height="32" viewBox="0 0 32 32" fill="none" xmlns="http://www.w3.org/2000/svg">
<path d="M20.8006 16.0006C20.8006 17.2737 20.2949 18.4946 19.3947 19.3947C18.4946 20.2949 17.2737 20.8006 16.0006 20.8006C14.7276 20.8006 13.5067 20.2949 12.6065 19.3947C11.7063 18.4946 11.2006 17.2737 11.2006 16.0006C11.2006 15.727 11.2294 15.4598 11.279 15.2006H9.60063V21.5958C9.60063 22.0406 9.96062 22.4006 10.4054 22.4006H21.5974C21.8106 22.4002 22.0149 22.3152 22.1655 22.1643C22.3161 22.0135 22.4006 21.809 22.4006 21.5958V15.2006H20.7222C20.7718 15.4598 20.8006 15.727 20.8006 16.0006ZM16.0006 19.2006C16.421 19.2005 16.8372 19.1176 17.2255 18.9567C17.6138 18.7957 17.9666 18.5599 18.2637 18.2626C18.5608 17.9653 18.7965 17.6124 18.9573 17.224C19.118 16.8356 19.2007 16.4194 19.2006 15.999C19.2005 15.5787 19.1176 15.1625 18.9567 14.7742C18.7957 14.3859 18.5599 14.0331 18.2626 13.736C17.9653 13.4388 17.6124 13.2031 17.224 13.0424C16.8356 12.8816 16.4194 12.7989 15.999 12.799C15.1501 12.7992 14.3361 13.1367 13.736 13.7371C13.1358 14.3375 12.7988 15.1517 12.799 16.0006C12.7992 16.8495 13.1367 17.6636 13.7371 18.2637C14.3375 18.8638 15.1517 19.2008 16.0006 19.2006ZM19.8406 12.6406H21.759C21.8865 12.6406 22.0087 12.5901 22.099 12.5001C22.1893 12.4102 22.2402 12.2881 22.2406 12.1606V10.2422C22.2406 10.1145 22.1899 9.992 22.0996 9.90168C22.0093 9.81137 21.8868 9.76062 21.759 9.76062H19.8406C19.7129 9.76062 19.5904 9.81137 19.5001 9.90168C19.4098 9.992 19.359 10.1145 19.359 10.2422V12.1606C19.3606 12.4246 19.5766 12.6406 19.8406 12.6406ZM16.0006 0.640625C11.9269 0.640625 8.02002 2.25891 5.13946 5.13946C2.25891 8.02002 0.640625 11.9269 0.640625 16.0006C0.640625 20.0744 2.25891 23.9812 5.13946 26.8618C8.02002 29.7423 11.9269 31.3606 16.0006 31.3606C18.0177 31.3606 20.0151 30.9633 21.8786 30.1914C23.7422 29.4195 25.4355 28.2881 26.8618 26.8618C28.2881 25.4355 29.4195 23.7422 30.1914 21.8786C30.9633 20.0151 31.3606 18.0177 31.3606 16.0006C31.3606 13.9835 30.9633 11.9862 30.1914 10.1226C29.4195 8.25905 28.2881 6.56577 26.8618 5.13946C25.4355 3.71316 23.7422 2.58175 21.8786 1.80984C20.0151 1.03792 18.0177 0.640625 16.0006 0.640625ZM24.0006 22.223C24.0006 23.2006 23.2006 24.0006 22.223 24.0006H9.77822C8.80062 24.0006 8.00063 23.2006 8.00063 22.223V9.77822C8.00063 8.80062 8.80062 8.00063 9.77822 8.00063H22.223C23.2006 8.00063 24.0006 8.80062 24.0006 9.77822V22.223Z" fill="white"/>
</svg>
