<svg width="45" height="46" viewBox="0 0 45 46" fill="none" xmlns="http://www.w3.org/2000/svg">
<path d="M22.4708 6.97784C23.7997 6.97784 25.0742 7.50575 26.0139 8.44545C26.9536 9.38515 27.4815 10.6597 27.4815 11.9886C27.4815 13.3175 26.9536 14.592 26.0139 15.5317C25.0742 16.4714 23.7997 16.9993 22.4708 16.9993C21.1415 16.9993 19.8667 16.4713 18.9268 15.5314C17.9869 14.5915 17.4589 13.3167 17.4589 11.9875C17.4589 10.6582 17.9869 9.38344 18.9268 8.44353C19.8667 7.50362 21.1415 6.97559 22.4708 6.97559V6.97784ZM22.4708 9.22784C21.7386 9.22784 21.0363 9.5187 20.5186 10.0364C20.0009 10.5542 19.71 11.2564 19.71 11.9886C19.71 12.7208 20.0009 13.423 20.5186 13.9407C21.0363 14.4585 21.7386 14.7493 22.4708 14.7493C23.2032 14.7493 23.9057 14.4584 24.4237 13.9404C24.9416 13.4224 25.2326 12.72 25.2326 11.9875C25.2326 11.255 24.9416 10.5525 24.4237 10.0345C23.9057 9.51657 23.2032 9.22559 22.4708 9.22559V9.22784ZM6.786 26.1253C6.786 26.4237 6.66747 26.7099 6.4565 26.9208C6.24552 27.1318 5.95937 27.2503 5.661 27.2503C5.36263 27.2503 5.07648 27.1318 4.8655 26.9208C4.65453 26.7099 4.536 26.4237 4.536 26.1253V20.5318C4.53607 19.9807 4.7384 19.4488 5.10461 19.037C5.47082 18.6252 5.97543 18.3621 6.52275 18.2976L6.786 18.2818H12.9892C12.6619 18.8467 12.4622 19.4765 12.4043 20.1268L12.3863 20.5318H6.78375V26.1253H6.786ZM39.3525 27.2503C39.6509 27.2503 39.937 27.1318 40.148 26.9208C40.359 26.7099 40.4775 26.4237 40.4775 26.1253V20.5318L40.4618 20.2708C40.3978 19.7231 40.1349 19.218 39.723 18.8513C39.3111 18.4846 38.7789 18.282 38.2275 18.2818H31.9635C32.292 18.8511 32.5035 19.5036 32.553 20.1966L32.5642 20.5341H38.2275V26.1253C38.2275 26.4237 38.346 26.7099 38.557 26.9208C38.768 27.1318 39.0541 27.2503 39.3525 27.2503ZM28.0665 18.2818C28.6179 18.282 29.1501 18.4846 29.562 18.8513C29.9739 19.218 30.2368 19.7231 30.3008 20.2708L30.3142 20.5318V26.1253C30.3142 26.4237 30.1957 26.7099 29.9847 26.9208C29.7738 27.1318 29.4876 27.2503 29.1892 27.2503C28.8909 27.2503 28.6047 27.1318 28.3938 26.9208C28.1828 26.7099 28.0642 26.4237 28.0642 26.1253V20.5318H16.8863V26.1253C16.8863 26.4237 16.7677 26.7099 16.5567 26.9208C16.3458 27.1318 16.0596 27.2503 15.7613 27.2503C15.4629 27.2503 15.1767 27.1318 14.9658 26.9208C14.7548 26.7099 14.6363 26.4237 14.6363 26.1253V20.5318C14.6363 19.9807 14.8387 19.4488 15.2049 19.037C15.5711 18.6252 16.0757 18.3621 16.623 18.2976L16.8863 18.2818H28.0642H28.0665ZM37.998 12.6951C37.998 11.5532 37.5444 10.4581 36.737 9.65073C35.9296 8.84331 34.8345 8.38971 33.6926 8.38971C32.5508 8.38971 31.4557 8.84331 30.6483 9.65073C29.8409 10.4581 29.3872 11.5532 29.3872 12.6951C29.3872 13.8369 29.8409 14.932 30.6483 15.7394C31.4557 16.5469 32.5508 17.0005 33.6926 17.0005C34.8345 17.0005 35.9296 16.5469 36.737 15.7394C37.5444 14.932 37.998 13.8369 37.998 12.6951ZM31.6372 12.6951C31.6372 12.15 31.8538 11.6272 32.2393 11.2417C32.6247 10.8563 33.1475 10.6397 33.6926 10.6397C34.2377 10.6397 34.7605 10.8563 35.146 11.2417C35.5315 11.6272 35.748 12.15 35.748 12.6951C35.748 13.2402 35.5315 13.763 35.146 14.1485C34.7605 14.5339 34.2377 14.7505 33.6926 14.7505C33.1475 14.7505 32.6247 14.5339 32.2393 14.1485C31.8538 13.763 31.6372 13.2402 31.6372 12.6951ZM11.286 8.38859C12.4279 8.38859 13.5229 8.84219 14.3304 9.6496C15.1378 10.457 15.5914 11.5521 15.5914 12.694C15.5914 13.8358 15.1378 14.9309 14.3304 15.7383C13.5229 16.5457 12.4279 16.9993 11.286 16.9993C10.1441 16.9993 9.04905 16.5457 8.24164 15.7383C7.43423 14.9309 6.98062 13.8358 6.98062 12.694C6.98062 11.5521 7.43423 10.457 8.24164 9.6496C9.04905 8.84219 10.1441 8.38859 11.286 8.38859ZM11.286 10.6386C10.7409 10.6386 10.2181 10.8551 9.83263 11.2406C9.44717 11.626 9.23063 12.1488 9.23063 12.694C9.23063 13.2391 9.44717 13.7619 9.83263 14.1473C10.2181 14.5328 10.7409 14.7493 11.286 14.7493C11.8311 14.7493 12.3539 14.5328 12.7394 14.1473C13.1248 13.7619 13.3414 13.2391 13.3414 12.694C13.3414 12.1488 13.1248 11.626 12.7394 11.2406C12.3539 10.8551 11.8311 10.6386 11.286 10.6386ZM5.625 29.5003C5.32663 29.5003 5.04048 29.6189 4.82951 29.8298C4.61853 30.0408 4.5 30.327 4.5 30.6253V32.8753C4.5 34.3672 5.09263 35.7979 6.14752 36.8528C7.20242 37.9077 8.63316 38.5003 10.125 38.5003H34.875C36.3668 38.5003 37.7976 37.9077 38.8525 36.8528C39.9074 35.7979 40.5 34.3672 40.5 32.8753V30.6253C40.5 30.327 40.3815 30.0408 40.1705 29.8298C39.9595 29.6189 39.6734 29.5003 39.375 29.5003H5.625ZM6.75 32.8753V31.7503H38.25V32.8753C38.25 33.7704 37.8944 34.6289 37.2615 35.2618C36.6285 35.8948 35.7701 36.2503 34.875 36.2503H10.125C9.22989 36.2503 8.37145 35.8948 7.73851 35.2618C7.10558 34.6289 6.75 33.7704 6.75 32.8753Z" fill="#E60B0B"/>
</svg>
