<svg width="45" height="46" viewBox="0 0 45 46" fill="none" xmlns="http://www.w3.org/2000/svg">
<path d="M26.9584 7.72285C27.2331 7.88285 27.4456 8.13124 27.561 8.42749C27.6764 8.72375 27.6881 9.05038 27.594 9.3541L24.4046 19.7153H30.0015C30.2762 19.7152 30.5448 19.7956 30.7744 19.9464C31.0039 20.0972 31.1842 20.312 31.2931 20.5641C31.402 20.8163 31.4346 21.0948 31.387 21.3653C31.3394 21.6358 31.2137 21.8864 31.0253 22.0863L16.0234 38.0247C15.8057 38.2562 15.516 38.4072 15.2015 38.4529C14.887 38.4987 14.5663 38.4366 14.2916 38.2768C14.017 38.1169 13.8045 37.8688 13.689 37.5727C13.5734 37.2767 13.5615 36.9503 13.6552 36.6466L16.8474 26.2825H11.2506C10.9759 26.2826 10.7072 26.2023 10.4777 26.0515C10.2482 25.9006 10.0678 25.6859 9.95896 25.4337C9.85009 25.1816 9.81743 24.9031 9.86503 24.6326C9.91263 24.3621 10.0384 24.1114 10.2268 23.9116L25.2259 7.97316C25.4435 7.7413 25.7333 7.59004 26.0479 7.54407C26.3626 7.4981 26.6835 7.56013 26.9584 7.72003V7.72285Z" fill="#448CFB"/>
<path d="M5.625 11.75H17.8088L15.165 14.5625H5.625C4.87908 14.5625 4.16371 14.8588 3.63626 15.3863C3.10882 15.9137 2.8125 16.6291 2.8125 17.375V28.625C2.8125 29.3709 3.10882 30.0863 3.63626 30.6137C4.16371 31.1412 4.87908 31.4375 5.625 31.4375H12.3188L11.4525 34.25H5.625C4.13316 34.25 2.70242 33.6574 1.64752 32.6025C0.592632 31.5476 0 30.1168 0 28.625V17.375C0 15.8832 0.592632 14.4524 1.64752 13.3975C2.70242 12.3426 4.13316 11.75 5.625 11.75Z" fill="#448CFB"/>
<path d="M5.625 17.375H12.5156L8.17875 21.9847C7.73119 22.4604 7.40021 23.0335 7.21187 23.659C7.02352 24.2844 6.98297 24.945 7.0934 25.5887C7.20382 26.2325 7.46222 26.8418 7.84822 27.3687C8.23423 27.8956 8.7373 28.3256 9.31781 28.625H5.625V17.375ZM29.7984 11.75L28.9322 14.5625H33.75C34.4959 14.5625 35.2113 14.8588 35.7387 15.3863C36.2662 15.9137 36.5625 16.6291 36.5625 17.375V28.625C36.5625 29.3709 36.2662 30.0863 35.7387 30.6137C35.2113 31.1412 34.4959 31.4375 33.75 31.4375H26.0888L23.4394 34.25H33.75C35.2418 34.25 36.6726 33.6574 37.7275 32.6025C38.7824 31.5476 39.375 30.1168 39.375 28.625V17.375C39.375 15.8832 38.7824 14.4524 37.7275 13.3975C36.6726 12.3426 35.2418 11.75 33.75 11.75H29.7984Z" fill="#448CFB"/>
<path d="M33.7491 28.625H28.7344L33.0712 24.0153C33.3441 23.7256 33.5719 23.4022 33.7491 23.0591V28.625ZM33.7491 19.1919V17.375H31.9322C32.712 17.777 33.3471 18.4121 33.7491 19.1919ZM44.9991 23C44.9991 24.1189 44.5546 25.1919 43.7634 25.9831C42.9722 26.7743 41.8992 27.2188 40.7803 27.2188V18.7812C41.8992 18.7812 42.9722 19.2257 43.7634 20.0169C44.5546 20.8081 44.9991 21.8811 44.9991 23Z" fill="#448CFB"/>
</svg>
