<svg width="46" height="45" viewBox="0 0 46 45" fill="none" xmlns="http://www.w3.org/2000/svg">
<path d="M9.20592 17.0742L10.8409 28.1254H34.7209L36.3465 16.9129L29.7972 22.5754L22.7565 13.5248L15.4272 22.5454L9.20592 17.0742ZM28.0272 14.1923L27.8809 14.3179L28.1453 14.3442L30.3334 17.1548L33.0278 14.8261L33.2903 14.8523L33.174 14.6986L37.6984 10.7873C37.9876 10.5378 38.3462 10.3825 38.7261 10.3423C39.1059 10.3022 39.489 10.379 39.8241 10.5625C40.1591 10.746 40.4301 11.0275 40.6007 11.3693C40.7714 11.711 40.8336 12.0967 40.779 12.4748L37.9665 31.8754H7.60467L4.74905 12.5629C4.69232 12.1828 4.75382 11.7943 4.9252 11.4503C5.09659 11.1062 5.36958 10.8231 5.70721 10.6394C6.04484 10.4556 6.43078 10.3801 6.81277 10.423C7.19476 10.4659 7.55434 10.6251 7.84279 10.8792L12.1572 14.6761L12.0634 14.7886L12.2678 14.7736L14.9753 17.1548L17.2478 14.3554L17.4522 14.3386L17.3397 14.2411L21.3353 9.33044C21.5133 9.11165 21.7383 8.93583 21.9937 8.81607C22.2491 8.69632 22.5281 8.63572 22.8102 8.63878C23.0922 8.64185 23.3699 8.7085 23.6226 8.83377C23.8753 8.95904 24.0965 9.13971 24.2697 9.36232L28.029 14.1923H28.0272ZM7.75092 33.7504H37.7509V35.6254C37.7509 36.1227 37.5534 36.5996 37.2017 36.9513C36.8501 37.3029 36.3732 37.5004 35.8759 37.5004H9.62592C9.12864 37.5004 8.65173 37.3029 8.30009 36.9513C7.94846 36.5996 7.75092 36.1227 7.75092 35.6254V33.7504Z" fill="black"/>
</svg>
