<svg width="51" height="40" viewBox="0 0 51 40" fill="none" xmlns="http://www.w3.org/2000/svg">
<path d="M1.99028 19.0332V0.720215H17.9135V19.0332H14.5886V3.49964H5.3152V19.0332H1.99028Z" fill="#E60B0B"/>
<path d="M21.7736 23.7089V6.33102H24.9427V8.35714C25.3063 7.66445 25.8518 7.11029 26.5791 6.69468C27.3238 6.27906 28.1637 6.07126 29.0988 6.07126C30.2071 6.07126 31.1769 6.33967 32.0081 6.87651C32.8566 7.41335 33.5147 8.17531 33.9823 9.16239C34.4498 10.1322 34.6836 11.3011 34.6836 12.6691C34.6836 14.0199 34.4498 15.1975 33.9823 16.2019C33.5147 17.189 32.8653 17.9509 32.0341 18.4877C31.2028 19.0246 30.2244 19.293 29.0988 19.293C28.1983 19.293 27.3844 19.1025 26.6571 18.7215C25.9471 18.3232 25.4016 17.7951 25.0206 17.137V23.7089H21.7736ZM28.1896 16.8253C29.1594 16.8253 29.9387 16.4789 30.5275 15.7863C31.1163 15.0762 31.4107 14.0372 31.4107 12.6691C31.4107 11.2838 31.1163 10.2534 30.5275 9.57801C29.9387 8.88531 29.1594 8.53897 28.1896 8.53897C27.2199 8.53897 26.4406 8.88531 25.8518 9.57801C25.263 10.2534 24.9686 11.2838 24.9686 12.6691C24.9686 14.0372 25.263 15.0762 25.8518 15.7863C26.4406 16.4789 27.2199 16.8253 28.1896 16.8253Z" fill="#E60B0B"/>
<path d="M43.5221 19.293C42.206 19.293 41.0631 19.0246 40.0933 18.4877C39.1235 17.9509 38.3702 17.189 37.8334 16.2019C37.2966 15.1975 37.0282 14.0199 37.0282 12.6691C37.0282 11.3184 37.2966 10.1495 37.8334 9.16239C38.3702 8.17531 39.1235 7.41335 40.0933 6.87651C41.0631 6.33967 42.206 6.07126 43.5221 6.07126C44.8382 6.07126 45.9812 6.33967 46.951 6.87651C47.9207 7.41335 48.674 8.17531 49.2109 9.16239C49.7477 10.1495 50.0161 11.3184 50.0161 12.6691C50.0161 14.0199 49.7477 15.1975 49.2109 16.2019C48.674 17.189 47.9207 17.9509 46.951 18.4877C45.9812 19.0246 44.8382 19.293 43.5221 19.293ZM43.5221 16.8253C44.4919 16.8253 45.2712 16.4789 45.86 15.7863C46.4488 15.0762 46.7431 14.0372 46.7431 12.6691C46.7431 11.2838 46.4488 10.2534 45.86 9.57801C45.2712 8.88531 44.4919 8.53897 43.5221 8.53897C42.5524 8.53897 41.7731 8.88531 41.1843 9.57801C40.5955 10.2534 40.3011 11.2838 40.3011 12.6691C40.3011 14.0372 40.5955 15.0762 41.1843 15.7863C41.7731 16.4789 42.5524 16.8253 43.5221 16.8253Z" fill="#E60B0B"/>
<path d="M0.0161133 35.2682L8.30243 16.9552H11.0299L19.3162 35.2682H15.9394L14.121 31.0341H5.18532L3.39298 35.2682H0.0161133ZM9.62721 20.5658L6.32826 28.3846H12.9781L9.67916 20.5658H9.62721Z" fill="#E60B0B"/>
<path d="M21.8395 39.9439V22.566H25.0086V24.5921C25.3723 23.8994 25.9178 23.3452 26.6451 22.9296C27.3897 22.514 28.2296 22.3062 29.1648 22.3062C30.2731 22.3062 31.2428 22.5746 32.0741 23.1115C32.9226 23.6483 33.5807 24.4103 34.0482 25.3973C34.5158 26.3671 34.7496 27.536 34.7496 28.9041C34.7496 30.2548 34.5158 31.4324 34.0482 32.4368C33.5807 33.4239 32.9313 34.1859 32.1 34.7227C31.2688 35.2595 30.2904 35.528 29.1648 35.528C28.2643 35.528 27.4503 35.3375 26.723 34.9565C26.013 34.5582 25.4675 34.03 25.0865 33.372V39.9439H21.8395ZM28.2556 33.0602C29.2254 33.0602 30.0046 32.7139 30.5934 32.0212C31.1822 31.3112 31.4766 30.2722 31.4766 28.9041C31.4766 27.5187 31.1822 26.4883 30.5934 25.813C30.0046 25.1203 29.2254 24.7739 28.2556 24.7739C27.2858 24.7739 26.5065 25.1203 25.9178 25.813C25.329 26.4883 25.0346 27.5187 25.0346 28.9041C25.0346 30.2722 25.329 31.3112 25.9178 32.0212C26.5065 32.7139 27.2858 33.0602 28.2556 33.0602Z" fill="#E60B0B"/>
<path d="M41.0944 35.2682V25.1116H36.7564V22.566H48.7053V25.1116H44.3414V35.2682H41.0944Z" fill="#E60B0B"/>
</svg>
