<svg width="60" height="15" viewBox="0 0 60 15" fill="none" xmlns="http://www.w3.org/2000/svg">
<path d="M0.232 12V0.719999H10.04V12H7.992V2.432H2.28V12H0.232ZM12.4176 14.88V4.176H14.3696V5.424C14.5936 4.99733 14.9296 4.656 15.3776 4.4C15.8363 4.144 16.3536 4.016 16.9296 4.016C17.6123 4.016 18.2096 4.18133 18.7216 4.512C19.2443 4.84267 19.6496 5.312 19.9376 5.92C20.2256 6.51733 20.3696 7.23733 20.3696 8.08C20.3696 8.912 20.2256 9.63733 19.9376 10.256C19.6496 10.864 19.2496 11.3333 18.7376 11.664C18.2256 11.9947 17.623 12.16 16.9296 12.16C16.375 12.16 15.8736 12.0427 15.4256 11.808C14.9883 11.5627 14.6523 11.2373 14.4176 10.832V14.88H12.4176ZM16.3696 10.64C16.967 10.64 17.447 10.4267 17.8096 10C18.1723 9.56267 18.3536 8.92267 18.3536 8.08C18.3536 7.22667 18.1723 6.592 17.8096 6.176C17.447 5.74933 16.967 5.536 16.3696 5.536C15.7723 5.536 15.2923 5.74933 14.9296 6.176C14.567 6.592 14.3856 7.22667 14.3856 8.08C14.3856 8.92267 14.567 9.56267 14.9296 10C15.2923 10.4267 15.7723 10.64 16.3696 10.64ZM25.8138 12.16C25.0031 12.16 24.2991 11.9947 23.7018 11.664C23.1044 11.3333 22.6404 10.864 22.3098 10.256C21.9791 9.63733 21.8138 8.912 21.8138 8.08C21.8138 7.248 21.9791 6.528 22.3098 5.92C22.6404 5.312 23.1044 4.84267 23.7018 4.512C24.2991 4.18133 25.0031 4.016 25.8138 4.016C26.6244 4.016 27.3284 4.18133 27.9258 4.512C28.5231 4.84267 28.9871 5.312 29.3177 5.92C29.6484 6.528 29.8138 7.248 29.8138 8.08C29.8138 8.912 29.6484 9.63733 29.3177 10.256C28.9871 10.864 28.5231 11.3333 27.9258 11.664C27.3284 11.9947 26.6244 12.16 25.8138 12.16ZM25.8138 10.64C26.4111 10.64 26.8911 10.4267 27.2538 10C27.6164 9.56267 27.7978 8.92267 27.7978 8.08C27.7978 7.22667 27.6164 6.592 27.2538 6.176C26.8911 5.74933 26.4111 5.536 25.8138 5.536C25.2164 5.536 24.7364 5.74933 24.3738 6.176C24.0111 6.592 23.8298 7.22667 23.8298 8.08C23.8298 8.92267 24.0111 9.56267 24.3738 10C24.7364 10.4267 25.2164 10.64 25.8138 10.64ZM30.5473 12L35.6513 0.719999H37.3313L42.4353 12H40.3553L39.2353 9.392H33.7313L32.6273 12H30.5473ZM36.4673 2.944L34.4353 7.76H38.5312L36.4993 2.944H36.4673ZM43.5895 14.88V4.176H45.5415V5.424C45.7655 4.99733 46.1015 4.656 46.5495 4.4C47.0082 4.144 47.5255 4.016 48.1015 4.016C48.7842 4.016 49.3815 4.18133 49.8935 4.512C50.4162 4.84267 50.8215 5.312 51.1095 5.92C51.3975 6.51733 51.5415 7.23733 51.5415 8.08C51.5415 8.912 51.3975 9.63733 51.1095 10.256C50.8215 10.864 50.4215 11.3333 49.9095 11.664C49.3975 11.9947 48.7948 12.16 48.1015 12.16C47.5468 12.16 47.0455 12.0427 46.5975 11.808C46.1602 11.5627 45.8242 11.2373 45.5895 10.832V14.88H43.5895ZM47.5415 10.64C48.1388 10.64 48.6188 10.4267 48.9815 10C49.3442 9.56267 49.5255 8.92267 49.5255 8.08C49.5255 7.22667 49.3442 6.592 48.9815 6.176C48.6188 5.74933 48.1388 5.536 47.5415 5.536C46.9442 5.536 46.4642 5.74933 46.1015 6.176C45.7388 6.592 45.5575 7.22667 45.5575 8.08C45.5575 8.92267 45.7388 9.56267 46.1015 10C46.4642 10.4267 46.9442 10.64 47.5415 10.64ZM55.0496 12V5.744H52.3776V4.176H59.7376V5.744H57.0496V12H55.0496Z" fill="#E60B0B"/>
</svg>
