<svg width="612" height="153" viewBox="0 0 612 153" fill="none" xmlns="http://www.w3.org/2000/svg">
<path d="M52.3722 0V62.6015H44.3474V15.2274L10.5585 62.6015H1.68896V0H9.71381V48.643L44.3474 0H52.3722Z" fill="black"/>
<path d="M95.03 49.0657L103.055 52.0266C100.943 54.5645 99.676 56.6794 98.8313 57.5254C94.6077 61.7552 89.117 63.8701 83.2039 63.8701C76.8685 63.8701 71.8002 61.7552 67.5766 57.5254C63.353 53.2955 61.2412 47.7967 61.2412 41.875C61.2412 35.9532 63.353 30.4545 67.5766 26.2246C71.8002 21.9948 77.2909 19.8799 83.2039 19.8799C89.5393 19.8799 94.6077 21.9948 98.8313 26.2246C99.676 27.0706 101.365 28.7625 103.055 31.7234L95.03 33.8383C94.1853 32.5694 93.3406 31.7234 92.9182 31.3004C90.3841 28.7625 87.0052 27.0706 83.2039 27.0706C79.4027 27.0706 76.0238 28.3395 73.4897 31.3004C70.9555 33.8383 69.2661 37.2222 69.2661 41.029C69.2661 44.8359 70.5331 48.2197 73.4897 50.7576C76.0238 53.2955 79.4027 54.9875 83.2039 54.9875C87.0052 54.9875 90.3841 53.7185 92.9182 50.7576C93.3406 51.1806 94.1853 50.3346 95.03 49.0657Z" fill="black"/>
<path d="M139.803 22.418L128.821 35.9534L144.026 63.0243H134.312L123.753 42.2982L119.529 46.951V62.6013H111.504V22.418H119.529V34.6845L130.088 22.418H139.803V22.418Z" fill="black"/>
<path d="M159.652 76.5597H151.205L161.764 54.1416L146.559 22.8408H155.851L165.988 44.8359L176.124 22.8408H185.416L159.652 76.5597Z" fill="black"/>
<path d="M226.385 49.0658L234.41 52.0267C232.298 54.5646 231.031 56.6795 230.186 57.5255C225.963 61.7553 220.472 63.8702 214.559 63.8702C208.224 63.8702 203.155 61.7553 198.932 57.5255C194.708 53.2957 192.596 47.7969 192.596 41.8751C192.596 35.9534 194.286 30.0316 198.509 25.8018C202.733 21.5719 208.224 19.457 214.137 19.457C220.472 19.457 225.54 21.5719 229.764 25.8018C230.609 26.6477 232.298 28.3397 233.988 31.3006L226.385 33.8384C225.54 32.5695 224.696 31.7235 224.273 31.3006C221.739 28.7627 218.36 27.0707 214.559 27.0707C210.758 27.0707 207.379 28.3397 204.845 31.3006C202.31 33.8385 200.621 37.2223 200.621 41.0292C200.621 44.836 201.888 48.2199 204.845 50.7578C207.379 53.2957 210.758 54.9876 214.559 54.9876C218.36 54.9876 221.739 53.7186 224.273 50.7578C224.273 51.1807 225.118 50.3348 226.385 49.0658Z" fill="black"/>
<path d="M275.8 49.0657L283.825 52.0266C281.713 54.5645 280.446 56.6794 279.601 57.5254C275.378 61.7552 269.887 63.8701 263.974 63.8701C257.639 63.8701 252.57 61.7552 248.347 57.5254C244.123 53.2955 242.011 47.7967 242.011 41.875C242.011 35.9532 244.123 30.4545 248.347 26.2246C252.57 21.9948 258.061 19.8799 263.974 19.8799C270.309 19.8799 275.378 21.9948 279.601 26.2246C280.446 27.0706 282.135 28.7625 283.825 31.7234L275.8 33.8383C274.955 32.5694 274.111 31.7234 273.688 31.3004C271.154 28.7625 267.775 27.0706 263.974 27.0706C260.173 27.0706 256.794 28.3395 254.26 31.3004C251.726 33.8383 250.036 37.2222 250.036 41.029C250.036 44.8359 251.303 48.2197 254.26 50.7576C256.794 53.2955 260.173 54.9875 263.974 54.9875C267.775 54.9875 271.154 53.7185 273.688 50.7576C274.111 51.1806 274.533 50.3346 275.8 49.0657Z" fill="black"/>
<path d="M313.391 30.4546V62.6013H305.366V30.4546H290.583V22.418H328.174V30.4546H313.391V30.4546Z" fill="black"/>
<path d="M336.199 22.418H354.361C356.473 22.418 359.007 23.2639 361.118 25.3788C363.653 27.4938 364.497 30.4546 364.497 34.2615C364.497 38.0683 362.386 41.0292 358.162 42.2982C362.386 43.9901 364.497 46.528 364.497 50.3348C364.497 54.5647 363.23 57.5255 361.118 59.6405C358.584 61.7554 356.473 62.6013 354.361 62.6013H336.199V22.418ZM344.224 38.4913H349.292C352.671 38.4913 354.783 37.6454 355.205 37.2224C356.05 36.3764 356.473 35.5304 356.473 34.6845C356.473 33.8385 356.05 32.9925 355.205 32.1466C354.361 31.3006 352.249 30.8776 349.292 30.8776H344.224V38.4913ZM344.224 46.951V54.9876H349.292C352.671 54.9876 354.783 54.1417 355.205 53.7187C356.05 52.8727 356.473 52.0268 356.473 51.1808C356.473 50.3348 356.05 49.4889 355.205 48.6429C354.361 47.7969 352.249 47.374 349.292 47.374H344.224V46.951Z" fill="black"/>
<path d="M394.062 19.0342C399.975 19.0342 405.466 21.1491 409.689 25.8019C413.913 30.0317 416.025 35.5305 416.025 41.4523C416.025 47.374 413.913 52.8728 409.689 57.1026C405.466 61.3325 399.975 63.4474 394.062 63.4474C387.726 63.4474 382.658 61.3325 378.435 57.1026C374.211 52.8728 372.099 47.374 372.099 41.4523C372.099 35.5305 374.211 30.0317 378.435 25.8019C382.658 21.1491 387.726 19.0342 394.062 19.0342ZM383.925 31.7237C381.391 34.2616 379.702 37.6454 379.702 41.4523C379.702 45.2591 380.969 48.643 383.925 51.1809C386.459 53.7188 389.838 55.4107 393.64 55.4107C397.441 55.4107 400.82 54.1418 403.354 51.1809C405.888 48.643 407.577 45.2591 407.577 41.4523C407.577 37.6454 406.31 34.2616 403.354 31.7237C400.82 29.1858 397.441 27.4938 393.64 27.4938C389.838 27.4938 386.882 28.7628 383.925 31.7237Z" fill="black"/>
<path d="M449.392 34.6846H505.144V42.7213H449.392V34.6846Z" fill="black"/>
<path d="M35.4783 118.369H13.5155V110.333H33.7888C33.7888 110.333 32.9441 109.487 31.2547 108.218C28.7205 105.68 25.3416 103.988 21.5404 103.988C17.7391 103.988 14.3603 105.257 11.8261 108.218C10.559 109.487 9.71429 111.179 8.44721 113.293H0C1.68944 108.218 3.80124 104.834 5.91304 102.296C10.1366 98.0661 15.6273 95.9512 21.5404 95.9512C27.4534 95.9512 32.9441 98.0661 37.1677 102.296C41.3913 106.526 43.5031 112.025 43.5031 117.946C43.5031 123.868 41.3913 129.367 37.1677 133.597C32.9441 137.826 27.4534 139.941 21.5404 139.941C15.205 139.941 10.1366 137.826 5.91304 133.597C5.06832 132.751 3.37888 130.636 0.42236 127.675H11.4037C14.3603 130.636 17.7391 131.905 21.5404 131.905C25.3416 131.905 28.7205 130.636 31.2547 127.675C34.2112 124.714 35.4783 121.753 35.4783 118.369Z" fill="black"/>
<path d="M73.4896 106.526V138.673H65.4647V106.526H50.6821V98.4893H88.2722V106.526H73.4896Z" fill="black"/>
<path d="M117.415 95.1055C123.751 95.1055 128.819 97.2204 133.043 101.45C137.266 105.68 139.378 111.179 139.378 117.101C139.378 123.022 137.266 128.521 133.043 132.751C128.819 136.981 123.328 139.096 117.415 139.096C111.08 139.096 106.012 136.981 101.788 132.751C97.5644 128.521 95.4526 123.022 95.4526 117.101C95.4526 111.179 97.5644 105.68 101.788 101.45C106.012 97.2204 111.502 95.1055 117.415 95.1055ZM107.701 107.795C105.167 110.333 103.477 113.717 103.477 117.524C103.477 121.33 104.745 124.714 107.701 127.252C110.235 129.79 113.614 131.482 117.415 131.482C121.217 131.482 124.595 130.213 127.13 127.252C129.664 124.714 131.353 121.33 131.353 117.524C131.353 113.717 130.086 110.333 127.13 107.795C124.595 105.257 121.217 103.565 117.415 103.565C113.614 103.565 110.235 104.834 107.701 107.795Z" fill="black"/>
<path d="M175.28 98.4893H183.305V123.868L202.311 98.4893H209.491V138.673H201.466V113.294L183.305 136.981V138.673H175.28V98.4893V98.4893Z" fill="black"/>
<path d="M252.15 138.673H244.125V120.907H225.119V138.673H217.094V98.4893H225.119V113.294H244.125V98.4893H252.15V138.673Z" fill="black"/>
<path d="M281.714 106.526V138.673H273.689V106.526H258.906V98.4893H296.496V106.526H281.714Z" fill="black"/>
<path d="M318.461 129.79C319.728 131.059 322.262 131.482 326.063 131.482C329.865 131.482 333.243 130.213 335.778 127.252C336.2 126.829 336.622 125.983 337.889 124.714L345.914 127.675C343.802 130.213 342.535 132.328 341.691 133.174C337.467 137.404 331.976 139.519 326.063 139.519C319.728 139.519 314.66 137.404 310.436 133.174C306.212 128.944 304.101 123.445 304.101 117.523C304.101 111.602 306.212 106.103 310.436 101.873C314.66 97.6432 320.15 95.5283 326.063 95.5283C331.132 95.5283 335.778 97.2203 340.001 100.181C340.846 100.604 341.268 101.45 342.113 101.873C342.535 102.296 342.958 103.142 344.225 104.411L340.001 108.641L318.461 129.79ZM331.976 104.411C331.132 103.565 329.02 103.142 325.641 103.142C321.84 103.142 318.461 104.411 315.927 107.372C313.393 109.91 311.703 113.294 311.703 117.1C311.703 120.061 312.125 122.176 312.97 123.445L331.976 104.411Z" fill="black"/>
<path d="M363.229 134.02V152.631H355.204V98.4892H363.229V102.296C367.03 97.6432 371.676 95.5283 376.744 95.5283C383.08 95.5283 388.148 97.6432 392.372 101.873C396.595 106.103 398.707 111.602 398.707 117.523C398.707 123.445 397.018 128.944 392.794 133.174C388.571 137.404 383.08 139.519 377.167 139.519C371.676 139.942 367.453 137.827 363.229 134.02ZM363.229 114.563V120.907C363.651 123.445 364.918 125.56 367.03 127.675C369.564 130.213 372.943 131.905 376.744 131.905C380.546 131.905 383.925 130.636 386.459 127.675C388.993 125.137 390.682 121.753 390.682 117.946C390.682 114.14 389.415 110.756 386.459 108.218C383.925 105.68 380.546 103.988 376.744 103.988C372.943 103.988 369.564 105.257 367.03 108.218C365.341 109.487 364.074 112.025 363.229 114.563Z" fill="black"/>
<path d="M421.516 129.79C422.784 131.059 425.318 131.482 429.119 131.482C432.92 131.482 436.299 130.213 438.833 127.252C439.256 126.829 439.678 125.983 440.945 124.714L448.97 127.675C446.858 130.213 445.591 132.328 444.746 133.174C440.523 137.404 435.032 139.519 429.119 139.519C422.784 139.519 417.715 137.404 413.492 133.174C409.268 128.944 407.156 123.445 407.156 117.523C407.156 111.602 409.268 106.103 413.492 101.873C417.715 97.6432 423.206 95.5283 429.119 95.5283C434.187 95.5283 438.833 97.2203 443.057 100.181C443.902 100.604 444.324 101.45 445.169 101.873C445.591 102.296 446.013 103.142 447.28 104.411L443.057 108.641L421.516 129.79ZM435.454 104.411C434.61 103.565 432.498 103.142 429.119 103.142C425.318 103.142 421.939 104.411 419.405 107.372C416.871 109.91 415.181 113.294 415.181 117.1C415.181 120.061 415.603 122.176 416.448 123.445L435.454 104.411Z" fill="black"/>
<path d="M490.36 125.137L498.385 128.098C496.273 130.636 495.006 132.751 494.161 133.597C489.938 137.826 484.447 139.941 478.534 139.941C472.199 139.941 467.13 137.826 462.907 133.597C458.683 129.367 456.571 123.868 456.571 117.946C456.571 112.025 458.683 106.526 462.907 102.296C467.13 98.0661 472.621 95.9512 478.534 95.9512C484.869 95.9512 489.938 98.0661 494.161 102.296C495.006 103.142 496.696 104.834 498.385 107.795L490.36 110.756C489.515 109.487 488.671 108.641 488.248 108.218C485.714 105.68 482.335 103.988 478.534 103.988C474.733 103.988 471.354 105.257 468.82 108.218C466.286 110.756 464.596 114.139 464.596 117.946C464.596 121.753 465.863 125.137 468.82 127.675C471.354 130.213 474.733 131.905 478.534 131.905C482.335 131.905 485.714 130.636 488.248 127.675C488.671 127.252 489.515 126.406 490.36 125.137Z" fill="black"/>
<path d="M540.62 138.673H532.595V120.907H513.589V138.673H505.564V98.4893H513.589V113.294H532.595V98.4893H540.62V138.673Z" fill="black"/>
<path d="M570.187 95.1055C576.523 95.1055 581.591 97.2204 585.815 101.45C590.038 105.68 592.15 111.179 592.15 117.101C592.15 123.022 590.038 128.521 585.815 132.751C581.591 136.981 576.1 139.096 570.187 139.096C563.852 139.096 558.784 136.981 554.56 132.751C550.336 128.521 548.225 123.022 548.225 117.101C548.225 111.179 550.336 105.68 554.56 101.45C558.784 97.2204 563.852 95.1055 570.187 95.1055ZM560.051 107.795C557.517 110.333 555.827 113.717 555.827 117.524C555.827 121.33 557.094 124.714 560.051 127.252C562.585 129.79 565.964 131.482 569.765 131.482C573.566 131.482 576.945 130.213 579.479 127.252C582.013 124.714 583.703 121.33 583.703 117.524C583.703 113.717 582.436 110.333 579.479 107.795C576.945 105.257 573.566 103.565 569.765 103.565C566.386 103.565 563.007 104.834 560.051 107.795Z" fill="black"/>
<path d="M610.31 129.79C611.577 131.059 611.999 132.328 611.999 133.597C611.999 135.289 611.577 136.558 610.31 137.827C609.043 139.096 607.776 139.519 606.086 139.519C604.397 139.519 603.13 139.096 602.285 137.827C601.018 136.558 600.596 135.289 600.596 133.597C600.596 131.905 601.018 130.636 602.285 129.79C603.552 128.521 604.819 128.098 606.086 128.098C608.198 128.098 609.465 128.521 610.31 129.79ZM610.31 76.0713V120.907H602.285V76.0713H610.31Z" fill="black"/>
</svg>
