<svg width="30" height="30" viewBox="0 0 30 30" fill="none" xmlns="http://www.w3.org/2000/svg">
<path d="M11.6016 15C11.6016 15.8702 11.9473 16.7048 12.5626 17.3202C13.178 17.9355 14.0126 18.2812 14.8828 18.2812C15.7531 18.2812 16.5877 17.9355 17.203 17.3202C17.8184 16.7048 18.1641 15.8702 18.1641 15C18.1641 14.1298 17.8184 13.2952 17.203 12.6798C16.5877 12.0645 15.7531 11.7188 14.8828 11.7188C14.0126 11.7188 13.178 12.0645 12.5626 12.6798C11.9473 13.2952 11.6016 14.1298 11.6016 15V15ZM27.6035 14.2441C24.8262 8.39356 20.6279 5.44922 15 5.44922C9.36914 5.44922 5.17383 8.39355 2.39649 14.2471C2.28509 14.483 2.22731 14.7406 2.22731 15.0015C2.22731 15.2623 2.28509 15.52 2.39649 15.7559C5.17383 21.6064 9.37207 24.5508 15 24.5508C20.6309 24.5508 24.8262 21.6064 27.6035 15.7529C27.8291 15.2783 27.8291 14.7275 27.6035 14.2441V14.2441ZM14.8828 20.1562C12.0352 20.1562 9.72656 17.8477 9.72656 15C9.72656 12.1523 12.0352 9.84375 14.8828 9.84375C17.7305 9.84375 20.0391 12.1523 20.0391 15C20.0391 17.8477 17.7305 20.1562 14.8828 20.1562Z" fill="#999999"/>
</svg>
